<svg width="100%" height="100%" viewBox="400 240 440 700" fill="none" xmlns="http://www.w3.org/2000/svg">
<path d="M625.741 331.172C628.857 331.184 631.973 331.173 635.089 331.159C646.214 331.15 656.754 331.637 667.678 333.614C668.769 333.794 669.859 333.973 670.983 334.159C674.11 334.676 677.23 335.222 680.349 335.774C681.364 335.945 682.38 336.116 683.426 336.293C696.295 338.511 707.345 340.937 717.854 347.899C720.015 349.349 720.015 349.349 723.432 350.892C727.729 350.07 730.917 348.206 734.519 346.1C747.564 338.989 764.008 337.384 779.185 339.013C790.981 341.378 801.508 346.601 810.863 353.052C811.861 353.739 812.859 354.427 813.887 355.135C818.969 358.779 818.969 358.779 821 360.611C821 361.323 821 362.036 821 362.771C812.988 367.954 803.871 370.952 794.39 373.569C793.005 374.015 791.62 374.46 790.193 374.919C773.412 377.828 756.897 375.269 742.087 368.132C738.013 365.626 734.88 362.749 731.509 359.598C727.216 355.509 727.216 355.509 721.466 353.57C718.523 353.854 716.078 354.366 713.295 355.211C699.555 358.932 683.179 356.558 670.212 351.972C669.794 351.615 669.376 351.259 668.945 350.892C665.996 350.49 663.037 350.138 660.075 349.812C651.346 348.852 651.346 348.852 649.938 347.652C647.768 347.544 645.593 347.511 643.42 347.509C642.063 347.507 640.707 347.506 639.309 347.505C637.161 347.511 637.161 347.511 634.97 347.517C633.593 347.513 632.215 347.509 630.795 347.505C615.129 347.52 601.407 348.585 586.582 353.052C585.471 353.375 584.361 353.698 583.216 354.03C563.714 360.132 547.839 371.795 538.432 387.608C537.861 388.489 537.291 389.37 536.704 390.278C526.289 407.638 525.449 429.533 532.333 447.887C548.077 487.436 595.135 509.263 636.634 526.777C639.371 527.917 642.116 529.04 644.87 530.152C644.87 530.864 644.87 531.577 644.87 532.311C645.84 532.541 646.81 532.771 647.81 533.007C699.937 549.372 754.139 584.045 778.591 626.906C790.491 650.398 789.179 679.634 779.72 703.632C773.892 715.339 766.319 726.887 756.377 736.408C755.336 737.423 754.296 738.438 753.224 739.484C741.834 750.431 729.443 759.873 715.506 768.402C709.554 772.089 704.457 776.175 699.356 780.683C698.311 781.53 697.265 782.376 696.188 783.248C681.434 796.451 675.931 809.797 676.291 827.827C677.032 845.639 687.995 861.793 701.89 874.633C702.573 875.301 703.256 875.969 703.959 876.658C719.9 891.403 743.44 901.485 765.247 908.109C766.838 908.68 768.423 909.262 769.998 909.864C778.363 912.88 786.631 914.925 795.573 916.284C798.192 916.748 798.192 916.748 800.726 917.828C800.726 918.541 800.726 919.254 800.726 919.988C741.072 920.771 687.64 913.561 632.303 893.548C624.58 891.918 618.6 893.414 611.608 896.163C581.959 907.147 551.348 914.055 519.425 917.828C517.983 918.015 516.54 918.203 515.055 918.396C501.256 920.065 487.727 920.243 473.808 920.123C471.581 920.112 469.353 920.102 467.126 920.093C461.751 920.07 456.375 920.033 451 919.988C451 918.919 451 917.85 451 916.748C452.04 916.562 452.04 916.562 453.101 916.373C469.238 913.433 484.187 909.729 499.151 903.79C500.018 903.451 500.885 903.113 501.778 902.764C547.663 884.696 581.062 852.002 598.461 811.797C602.156 802.98 605.128 794.266 606.856 785.003C607.085 783.931 607.314 782.859 607.549 781.755C611.559 757.012 609.013 730.353 591.296 709.679C577.634 695.069 558.724 687.006 539.318 679.099C523.248 672.537 510.074 665.889 502.952 651.098C503.37 650.029 503.788 648.96 504.219 647.858C505.4 648.432 506.581 649.005 507.798 649.596C519.994 655.401 531.841 659.544 545.638 661.829C549.82 662.563 553.121 663.759 556.884 665.474C562.236 667.892 567.642 669.493 573.436 670.941C607.422 679.549 636.546 695.843 653.841 722.845C661.987 736.11 668.208 751.502 666.411 766.645C691.816 756.571 708.557 739.53 718.358 717.355C725.542 699.692 724.699 678.97 715.829 661.897C696.38 627.907 653.487 609.496 616.394 592.126C543.189 557.822 543.189 557.822 514.356 535.551C513.175 534.648 511.994 533.744 510.778 532.813C486.977 513.629 469.565 487.111 468.314 458.935C467.46 424.378 477.599 396.397 505.635 370.79C520.744 357.523 538.794 348.236 558.705 341.173C559.939 340.721 561.172 340.268 562.443 339.802C571.438 336.742 580.767 335.355 590.287 334.025C592.052 333.749 593.808 333.423 595.549 333.051C605.547 330.992 615.517 331.127 625.741 331.172Z" fill="#234529"/>
<path d="M419.126 549.153C445.802 551.333 468.018 564.017 485.202 581.258C499.707 597.396 504.972 616.363 503.855 636.383C503.24 640.032 502.407 643.584 501.326 647.153C478.231 644.178 456.012 634.849 441.37 619.106C430.739 606.744 424.358 594.156 420.39 579.307C420.164 578.466 419.938 577.626 419.705 576.76C419.095 573.771 418.982 571.01 419.002 567.978C419.006 566.878 419.01 565.778 419.014 564.644C419.025 563.508 419.036 562.371 419.047 561.201C419.052 560.044 419.058 558.887 419.064 557.694C419.079 554.847 419.099 552 419.126 549.153Z" fill="#244629"/>
<path d="M776.78 255.153C778.016 281.951 774.535 300.71 753.713 321.552C746.907 327.068 739.29 331.255 731.046 335.022C730.255 335.385 729.464 335.748 728.649 336.122C721.292 339.368 714.592 341.293 706.296 341.145C705.375 319.052 705.649 301.857 721.675 283.454C722.279 282.754 722.884 282.053 723.507 281.332C735.184 268.864 757.438 255.153 776.78 255.153Z" fill="#254629"/>
<path d="M692.344 359.153C708.549 362.852 723.205 371.856 731.912 384.1C732.897 385.991 732.897 385.991 732.897 389.212C733.734 389.212 734.57 389.212 735.432 389.212C740.989 403.271 742.638 417.501 739.234 432.153C724.409 431.161 713.531 422.608 703.749 413.903C700.832 410.823 698.41 407.687 696.146 404.241C695.655 403.55 695.165 402.86 694.66 402.148C687.298 391.008 686.667 376.54 689.73 364.252C691.076 360.226 691.076 360.226 692.344 359.153Z" fill="#26472A"/>
<path d="M521.967 583.153C538.221 589.533 547.925 603.265 554.777 616.772C558.867 628.706 557.145 643.657 550.991 654.73C549.76 656.553 548.506 658.366 547.206 660.153C538.846 659.467 534.009 654.115 528.743 648.978C519.384 639.015 513.893 627.918 514.002 615.078C514.006 614.23 514.01 613.381 514.015 612.507C514.238 602.101 516.206 592.418 521.967 583.153Z" fill="#26472B"/>
<path d="M508 661.964C505.017 672.53 495.419 681.191 485.219 687.45C475.032 692.524 465.735 695.267 453.895 695.149C452.89 695.144 451.885 695.139 450.849 695.134C442.767 695.03 434.353 694.783 427 691.698C428.775 681.086 439.964 672.172 449.564 665.718C466.355 655.98 489.711 654.291 508 661.964Z" fill="#25462B"/>
<path d="M769.108 339.197C770.38 339.176 770.38 339.176 771.677 339.153C776.174 339.141 778.165 339.249 782 341.786C778.443 342.963 775.8 343.201 772.075 343.344C770.236 343.418 770.236 343.418 768.361 343.494C767.083 343.541 765.805 343.587 764.488 343.635C763.196 343.686 761.904 343.737 760.573 343.79C757.382 343.915 754.191 344.036 751 344.153C751.393 342.981 751.787 341.81 752.192 340.603C757.848 339.501 763.361 339.203 769.108 339.197Z" fill="#315037"/>
<path d="M706.143 316.153C706.567 316.153 706.991 316.153 707.429 316.153C707.429 324.305 707.429 332.457 707.429 340.856C711.247 340.502 715.066 340.147 719 339.782C716.879 341.555 714.757 343.327 712.571 345.153C708.753 344.089 704.934 343.026 701 341.93C702.697 341.576 704.394 341.222 706.143 340.856C706.143 332.704 706.143 324.552 706.143 316.153Z" fill="#AEBAAF"/>
<path d="M502.225 614.153C502.629 614.153 503.033 614.153 503.449 614.153C505.511 623.645 505.523 633.672 503.449 643.153C503.045 643.153 502.641 643.153 502.225 643.153C501.821 637.127 501.416 631.102 501 624.893C501.808 624.893 502.617 624.893 503.449 624.893C503.045 624.185 502.641 623.476 502.225 622.745C502.06 619.875 502.172 617.029 502.225 614.153Z" fill="#56715B"/>
<path d="M779.25 914.153C781.908 914.434 784.564 914.728 787.219 915.028C788.698 915.19 790.177 915.353 791.701 915.52C795.5 916.153 795.5 916.153 798 918.153C791.4 918.153 784.8 918.153 778 918.153C778.413 916.833 778.825 915.513 779.25 914.153Z" fill="#38583E"/>
<path d="M515.571 363.153C516.373 363.508 517.174 363.863 518 364.23C516.319 365.99 514.621 367.738 512.915 369.48C511.971 370.454 511.027 371.429 510.055 372.433C507.077 374.994 504.921 376.078 501 377.153C505.62 372.242 510.41 367.621 515.571 363.153Z" fill="#315138"/>
<path d="M728.6 277.153C729.392 278.225 730.184 279.298 731 280.403C729.684 281.831 728.357 283.252 727.025 284.668C726.287 285.46 725.549 286.252 724.789 287.068C722.6 289.069 722.6 289.069 719 290.153C720.692 286.861 722.706 284.093 725.15 281.215C725.797 280.45 726.443 279.685 727.109 278.896C727.601 278.321 728.093 277.745 728.6 277.153Z" fill="#3A593F"/>
<path d="M742.5 268.153C743.325 268.483 744.15 268.813 745 269.153C739.219 274.903 739.219 274.903 735 277.153C733.35 276.823 731.7 276.493 730 276.153C734.125 273.513 738.25 270.873 742.5 268.153Z" fill="#335238"/>
<path d="M505.111 655.153C507.556 657.224 507.556 657.224 510 659.724C510 660.856 510 661.987 510 663.153C506.37 662.021 502.74 660.89 499 659.724C502.667 657.438 502.667 657.438 505.111 657.438C505.111 656.684 505.111 655.93 505.111 655.153Z" fill="#C2CCC4"/>
<path d="M730 349.153C731.32 349.813 732.64 350.473 734 351.153C731.778 352.819 729.556 354.486 727.333 356.153C725.573 355.163 723.813 354.173 722 353.153C723.333 351.153 723.333 351.153 726.5 349.903C727.655 349.655 728.81 349.408 730 349.153Z" fill="#37543C"/>
<path d="M686.556 756.153C687.362 756.813 688.169 757.473 689 758.153C685.37 760.628 685.37 760.628 681.667 763.153C680.457 762.493 679.247 761.833 678 761.153C680.823 759.503 683.647 757.853 686.556 756.153Z" fill="#2E5134"/>
<path d="M506.4 900.153C507.258 900.538 508.116 900.923 509 901.319C505.941 904.498 502.988 905.769 498.6 907.153C497.742 906.383 496.884 905.613 496 904.819C497.672 904.006 499.353 903.207 501.037 902.413C501.973 901.966 502.908 901.52 503.871 901.06C504.706 900.76 505.54 900.461 506.4 900.153Z" fill="#4E6B54"/>
<path d="M503 648.153C504.273 648.513 505.546 648.873 506.857 649.244C506.99 650.031 507.122 650.819 507.259 651.63C508.22 654.965 509.789 657.298 512 660.153C507.919 658.959 506.871 657.991 504.607 654.766C503 651.425 503 651.425 503 648.153Z" fill="#1E3822"/>
<path d="M748 343.741C743.823 346.152 739.794 346.62 735 347.153C739.981 343.478 741.766 342.32 748 343.741Z" fill="#416047"/>
<path d="M565.425 908.26C566.605 908.495 567.784 908.731 569 908.973C564.263 911.495 561.574 911.218 556 911.05C559.428 908.417 560.562 907.886 565.425 908.26Z" fill="#2D4C34"/>
<path d="M530 447.153C533.285 450.736 534.497 453.924 536 458.062C534.515 458.602 534.515 458.602 533 459.153C531.211 454.923 530 451.608 530 447.153Z" fill="#4B6650"/>
</svg>
